<svg id="a0c7e701-67ac-43cb-8648-0b0fe36a334d" data-name="Layer 1" xmlns="http://www.w3.org/2000/svg" viewBox="0 0 126.33 51.99"><defs><style>.eb3811d3-21ea-44af-9611-666bd561b57a{fill:#f47d30;}.eafa0d6e-4a98-48c8-a4f4-e8b090dde1ea{fill:#555658;}</style></defs><title>arcelormittalCustomer</title><path class="eb3811d3-21ea-44af-9611-666bd561b57a" d="M130.8,34.92a4.39,4.39,0,0,1-1.88-.48,60.73,60.73,0,0,0-27.56-7.06,28.8,28.8,0,0,0-3.14.16,104.82,104.82,0,0,0,6.9,9.41,2.31,2.31,0,0,1,.71,1.68,2.4,2.4,0,0,1-2.38,2.15c-.81,0-1.3-.32-2.06-1.21a108.35,108.35,0,0,1-8.17-11.28c-8.91,1.58-18.84,6.84-24.7,11.48a2.66,2.66,0,0,1-1.81.76,2.37,2.37,0,0,1-2.33-2.3c0-.71.26-1.24,1.18-2,9-7.45,22.85-13.33,34.66-13.33a56.81,56.81,0,0,1,13.57,1.71A68.3,68.3,0,0,1,123.72,28C114.94,22.72,103.94,17.88,97,17.88c-1.78,0-2.87.59-2.87,1.79a5.64,5.64,0,0,0,1,2.59,30.9,30.9,0,0,0-4.61.8,8.88,8.88,0,0,1-1.23-4.28c0-3.39,2.21-5.48,6.66-5.48,10.09,0,27,9.4,35.5,16.27,1,.79,1.92,1.76,1.92,2.91a2.53,2.53,0,0,1-2.53,2.44" transform="translate(-7 -13.3)"/><path class="eafa0d6e-4a98-48c8-a4f4-e8b090dde1ea" d="M21.17,54.92a.9.9,0,0,1,.93-1,.88.88,0,0,1,.91,1v1a3.44,3.44,0,0,1,2.56-2,.83.83,0,0,1,.94.86c0,.48-.26.84-1.07,1.07A2.91,2.91,0,0,0,23,59.08v5.23a.93.93,0,1,1-1.85,0Z" transform="translate(-7 -13.3)"/><path class="eafa0d6e-4a98-48c8-a4f4-e8b090dde1ea" d="M62.54,54.92a.93.93,0,1,1,1.85,0v1a3.41,3.41,0,0,1,2.56-2,.82.82,0,0,1,.93.86c0,.48-.26.84-1.07,1.07a2.92,2.92,0,0,0-2.42,3.21v5.23a.93.93,0,1,1-1.85,0V54.92Z" transform="translate(-7 -13.3)"/><path class="eafa0d6e-4a98-48c8-a4f4-e8b090dde1ea" d="M31.77,53.94c1.8,0,3,.73,3,1.38a.76.76,0,0,1-.73.78c-.68,0-1-.55-2.24-.55-2.09,0-3.17,1.88-3.17,4.07,0,2.37,1.21,4.06,3.17,4.06,1.37,0,1.67-.57,2.31-.57a.65.65,0,0,1,.67.72c0,.42-.34.76-1,1a4.92,4.92,0,0,1-2,.42c-3.13,0-5-2.36-5-5.67s1.9-5.68,5-5.68" transform="translate(-7 -13.3)"/><path class="eafa0d6e-4a98-48c8-a4f4-e8b090dde1ea" d="M37.43,60.32a3.2,3.2,0,0,0,3.27,3.36c2.17,0,2.69-1.22,3.47-1.22a.72.72,0,0,1,.75.77c0,.89-2,2.06-4.2,2.06a4.74,4.74,0,0,1-3.6-1.37,6.1,6.1,0,0,1-1.55-4.3c0-3,1.88-5.68,5-5.68,2.89,0,4.76,2.55,4.76,5.4,0,.65-.26,1-1,1Zm6-1.37c0-1.59-.9-3.4-2.92-3.4s-3,1.56-3.12,3.4Z" transform="translate(-7 -13.3)"/><path class="eafa0d6e-4a98-48c8-a4f4-e8b090dde1ea" d="M49.1,64.31a.92.92,0,1,1-1.84,0V51.17a.92.92,0,1,1,1.84,0Z" transform="translate(-7 -13.3)"/><path class="eafa0d6e-4a98-48c8-a4f4-e8b090dde1ea" d="M55.82,65.29c-2.94,0-4.89-2.34-4.89-5.67s2-5.68,4.89-5.68,4.89,2.34,4.89,5.68-2,5.67-4.89,5.67m0-1.61c1.8,0,3-1.57,3-4.06s-1.23-4.07-3-4.07-3,1.57-3,4.07,1.23,4.06,3,4.06" transform="translate(-7 -13.3)"/><path class="eafa0d6e-4a98-48c8-a4f4-e8b090dde1ea" d="M80.69,54.71l-2.86,9.83a1,1,0,0,1-2,0C75.73,64,74,58,72.94,54.45c-.17-.58-.33-1.26-.45-1.84-.07.57-.16,1.23-.25,1.84-.53,3.31-1.35,8.47-1.58,9.92-.1.64-.42.92-1,.92a.79.79,0,0,1-.82-.88,5.36,5.36,0,0,1,.1-.83s1.85-11.14,2-12,.63-1.4,1.4-1.4a1.46,1.46,0,0,1,1.44,1.16c.13.47,1.63,5.7,2.58,9,.17.61.35,1.33.48,2,.13-.64.29-1.32.46-1.92,1-3.3,2.47-8.6,2.6-9.07a1.4,1.4,0,0,1,1.39-1.16c.72,0,1.25.47,1.39,1.4s2,12,2,12a5.36,5.36,0,0,1,.1.83.79.79,0,0,1-.82.88c-.53,0-.86-.28-1-.92-.22-1.41-1-6.32-1.53-9.63-.1-.68-.2-1.44-.29-2.14-.13.61-.31,1.36-.53,2.11" transform="translate(-7 -13.3)"/><path class="eafa0d6e-4a98-48c8-a4f4-e8b090dde1ea" d="M88.07,50.69A1.13,1.13,0,1,1,87,51.82a1.12,1.12,0,0,1,1.12-1.13M89,54.92a.93.93,0,1,0-1.85,0v9.39a.93.93,0,1,0,1.85,0Z" transform="translate(-7 -13.3)"/><path class="eafa0d6e-4a98-48c8-a4f4-e8b090dde1ea" d="M92.21,51.67a.92.92,0,1,1,1.84,0v2.4h.76c.6,0,.91.29.91.79s-.31.8-.91.8h-.76v8.65a.92.92,0,1,1-1.84,0V55.67h-.67c-.61,0-.92-.3-.92-.8s.31-.8.92-.8h.67Z" transform="translate(-7 -13.3)"/><path class="eafa0d6e-4a98-48c8-a4f4-e8b090dde1ea" d="M98,51.67a.92.92,0,1,1,1.84,0v2.4h.75c.61,0,.92.29.92.79s-.31.8-.92.8h-.75v8.65a.92.92,0,1,1-1.84,0V55.67h-.68c-.6,0-.91-.3-.91-.8s.31-.8.91-.8H98Z" transform="translate(-7 -13.3)"/><path class="eafa0d6e-4a98-48c8-a4f4-e8b090dde1ea" d="M19.19,63.6c-.39-1-4-10.73-4.55-12.22-.29-.75-.72-1.19-1.43-1.19s-1.12.44-1.4,1.19S7.63,62.56,7.24,63.6a2.79,2.79,0,0,0-.24.89.83.83,0,0,0,.88.8.92.92,0,0,0,.93-.69c.1-.26.6-1.69,1.26-3.52h6.28l1.26,3.52a.91.91,0,0,0,.9.69.85.85,0,0,0,.93-.78,2.59,2.59,0,0,0-.25-.91m-8.54-4.15,2.16-6.06c.16-.43.29-.85.4-1.19.12.37.26.8.4,1.19.56,1.57,1.4,3.91,2.16,6.06Z" transform="translate(-7 -13.3)"/><path class="eafa0d6e-4a98-48c8-a4f4-e8b090dde1ea" d="M116.62,64.31a.93.93,0,1,1-1.85,0V51.17a.93.93,0,1,1,1.85,0Z" transform="translate(-7 -13.3)"/><path class="eafa0d6e-4a98-48c8-a4f4-e8b090dde1ea" d="M111.24,53.94a.88.88,0,0,0-.92,1v.83a3.62,3.62,0,0,0-3.16-1.81c-2.81,0-4.75,2.34-4.75,5.68s1.94,5.67,4.75,5.67a3.63,3.63,0,0,0,3.16-1.81v.83a.92.92,0,1,0,1.84,0V54.92a.89.89,0,0,0-.92-1m-3.94,9.74c-1.8,0-3-1.57-3-4.06s1.23-4.07,3-4.07,3,1.57,3,4.07-1.23,4.06-3,4.06" transform="translate(-7 -13.3)"/></svg>