<svg width="65" height="30" viewBox="0 0 65 30" fill="none" xmlns="http://www.w3.org/2000/svg">
<g clip-path="url(#clip0_10279_571)">
<path d="M0 15.6152C0 11.3225 0 7.02975 0 2.73701C0 2.65824 0 2.57947 0 2.50071C0.00987542 2.25457 0.12838 2.09703 0.365391 2.0478C0.809785 1.95919 1.2443 1.87058 1.6887 1.82135C2.4096 1.73274 3.13051 1.66382 3.85141 1.5949C4.37481 1.54567 4.88833 1.51613 5.41173 1.49644C6.33014 1.46691 7.23868 1.43737 8.1571 1.45706C9.55941 1.4866 10.9617 1.60475 12.3443 1.87058C13.6775 2.12657 14.9514 2.54994 16.1068 3.28837C17.2129 3.99726 18.072 4.94246 18.5658 6.17317C18.9213 7.04945 19.0299 7.9651 19.0102 8.90045C19.0003 9.78656 18.8621 10.653 18.5164 11.48C18.0226 12.6221 17.203 13.4689 16.1661 14.1285C16.0969 14.1679 16.0278 14.2073 15.9686 14.2565C15.6624 14.483 15.6822 14.8867 16.0179 15.0737C16.0772 15.1033 16.1463 15.1328 16.2154 15.1623C16.887 15.4479 17.5091 15.8122 18.0918 16.2552C19.2472 17.1315 19.9681 18.2834 20.2249 19.7012C20.4915 21.1486 20.452 22.586 20.0372 23.994C19.5237 25.7465 18.4374 27.056 16.8771 27.9914C15.9093 28.5624 14.8625 28.9267 13.7861 29.1925C12.8084 29.4288 11.811 29.5765 10.8037 29.675C9.21377 29.8325 7.61395 29.8424 6.02401 29.7931C4.96734 29.7537 3.91067 29.6553 2.86387 29.5765C2.07384 29.5174 1.2838 29.419 0.503646 29.2516C0.0888788 29.163 0 29.0547 0 28.6215C0 25.5988 0 22.5762 0 19.5535C0 18.2342 0 16.9247 0 15.6152ZM3.85141 21.5129C3.85141 22.7928 3.85141 24.0727 3.85141 25.3625C3.85141 25.5693 3.84154 25.7761 3.85141 25.973C3.86129 26.2585 4.03905 26.4357 4.32543 26.4554C5.17472 26.4948 6.02401 26.544 6.87329 26.5736C7.78183 26.6031 8.69037 26.5736 9.58903 26.5046C10.3494 26.4554 11.1098 26.3668 11.8604 26.2093C12.6899 26.0321 13.4898 25.7761 14.2206 25.333C15.1983 24.7423 15.9192 23.9349 16.2154 22.8026C16.4031 22.1036 16.4228 21.3947 16.3339 20.676C16.1858 19.4354 15.613 18.4508 14.5564 17.7518C14.0626 17.4269 13.5096 17.2004 12.9467 17.033C11.8209 16.7081 10.6556 16.59 9.49028 16.5703C7.79171 16.5407 6.09313 16.5604 4.39456 16.5604C4.36494 16.5604 4.33531 16.5604 4.29581 16.5604C4.03905 16.5801 3.86129 16.7574 3.84154 17.0232C3.83166 17.102 3.84154 17.1807 3.84154 17.2595C3.85141 18.6773 3.85141 20.0951 3.85141 21.5129ZM6.56715 13.4689C7.00167 13.4689 7.43619 13.4689 7.87071 13.4689C8.88788 13.4787 9.90505 13.4098 10.9123 13.2326C11.6727 13.1046 12.4035 12.8781 13.0652 12.4843C13.9145 11.9822 14.5564 11.3028 14.8428 10.3379C15.0008 9.82595 15.0304 9.30412 15.0106 8.77245C14.9711 7.87649 14.6551 7.10852 14.0231 6.46855C13.4898 5.92703 12.838 5.58243 12.1369 5.32644C10.8827 4.87353 9.57916 4.70616 8.25585 4.67662C7.01155 4.64708 5.75737 4.66677 4.51307 4.76523C3.97979 4.80461 3.84154 4.93261 3.84154 5.47413C3.84154 7.91587 3.84154 10.3478 3.84154 12.7895C3.84154 12.8781 3.84154 12.9667 3.85141 13.0455C3.87117 13.2227 3.96992 13.3606 4.1378 13.4196C4.22668 13.459 4.33531 13.4689 4.43406 13.4689C5.14509 13.4689 5.85612 13.4689 6.56715 13.4689Z" fill="white"/>
<path d="M56.0727 30.0686C55.253 30.0194 54.4333 29.9899 53.6137 29.921C52.7348 29.8422 51.8954 29.6256 51.056 29.3499C50.7399 29.2514 50.4239 29.1431 50.1178 29.0348C49.8314 28.9364 49.7524 28.7985 49.8117 28.513C49.9795 27.745 50.1474 26.9771 50.3054 26.2091C50.3647 25.9236 50.5424 25.7562 50.8979 25.8842C51.4213 26.0713 51.9546 26.2485 52.4879 26.4356C53.1989 26.6817 53.9396 26.8097 54.6901 26.8491C55.4801 26.8885 56.2702 26.9082 57.0602 26.8885C57.8305 26.8688 58.581 26.7605 59.3019 26.4651C59.4896 26.3863 59.6772 26.2977 59.8451 26.1796C60.4179 25.8054 60.7042 25.2541 60.7536 24.5846C60.8227 23.5212 60.4178 22.6843 59.5291 22.0837C58.8477 21.621 58.1169 21.2469 57.3663 20.9219C56.4381 20.5183 55.5098 20.1441 54.5815 19.7503C53.9297 19.4746 53.2779 19.1891 52.6755 18.8149C51.9151 18.3424 51.2633 17.7516 50.7893 16.9935C50.4042 16.3732 50.177 15.7037 50.1079 14.9751C50.019 14.0791 50.0585 13.1832 50.3449 12.3168C50.7696 11.0073 51.6287 10.0424 52.794 9.34334C53.6631 8.82151 54.6111 8.52614 55.6085 8.34892C56.6553 8.17169 57.712 8.14216 58.7687 8.22092C60.1808 8.31938 61.5832 8.53599 62.946 8.95935C63.2916 9.06766 63.3607 9.18581 63.2916 9.53041C63.1336 10.2688 62.9756 11.0073 62.8176 11.7457C62.7386 12.1001 62.5608 12.1986 62.2152 12.0608C61.4153 11.7654 60.5956 11.5291 59.7562 11.4109C59.1439 11.3223 58.5316 11.2928 57.9194 11.283C57.2182 11.2731 56.5368 11.3322 55.8653 11.5389C55.1938 11.7359 54.6309 12.0903 54.2358 12.681C53.5841 13.6558 53.6927 14.8668 54.5025 15.7135C54.9271 16.1468 55.4308 16.4717 55.9838 16.708C56.6257 16.9935 57.2775 17.2396 57.9292 17.5055C58.8872 17.8993 59.855 18.2833 60.8129 18.6968C61.4844 18.9922 62.1164 19.3762 62.6793 19.8488C63.6372 20.6364 64.21 21.6505 64.4174 22.8714C64.5655 23.7575 64.5754 24.6535 64.3878 25.5494C64.1113 26.918 63.3607 27.9617 62.1856 28.7099C61.3461 29.2416 60.4277 29.5567 59.4698 29.7634C58.344 29.98 57.2083 30.049 56.0727 30.0686Z" fill="white"/>
<path d="M33.5369 12.8977C33.5369 9.75695 33.5369 6.61616 33.5369 3.48521C33.5369 3.40644 33.5369 3.32768 33.5369 3.24891C33.5468 3.00277 33.6554 2.85508 33.9023 2.796C34.2183 2.72708 34.5344 2.67786 34.8504 2.61878C35.4528 2.51048 36.065 2.41202 36.6674 2.31356C36.9933 2.25449 37.2303 2.44156 37.2501 2.76647C37.2501 2.82554 37.2501 2.89446 37.2501 2.95354C37.2501 4.62731 37.2501 6.30109 37.2501 7.98471C37.2501 8.05364 37.2501 8.12256 37.2501 8.20132C37.26 8.477 37.4279 8.65423 37.7044 8.68376C37.7932 8.69361 37.892 8.69361 37.9908 8.69361C40.1633 8.69361 42.3359 8.69361 44.5085 8.69361C44.6073 8.69361 44.7159 8.69361 44.8147 8.70345C45.022 8.73299 45.1603 8.86099 45.1899 9.06775C45.1998 9.10713 45.1998 9.14651 45.1998 9.1859C45.1998 9.88494 45.1998 10.584 45.1998 11.283C45.1998 11.3027 45.1998 11.3323 45.1998 11.352C45.18 11.5981 45.0319 11.7556 44.785 11.7852C44.706 11.795 44.627 11.795 44.548 11.795C42.3557 11.795 40.1535 11.795 37.9611 11.795C37.8722 11.795 37.7834 11.795 37.7044 11.795C37.4674 11.8147 37.2995 11.9821 37.2698 12.2184C37.26 12.2873 37.26 12.3562 37.26 12.435C37.26 15.497 37.26 18.5591 37.26 21.6112C37.26 22.4974 37.3192 23.3835 37.5562 24.2499C37.6254 24.5059 37.7142 24.7619 37.8229 25.008C38.208 25.8646 38.8697 26.3864 39.7881 26.5932C40.4991 26.7606 41.2101 26.7606 41.931 26.7212C42.4939 26.6818 43.047 26.6227 43.5802 26.4553C43.9456 26.3372 44.311 26.1994 44.6665 26.0615C44.706 26.0517 44.7357 26.032 44.7752 26.0221C45.0912 25.9138 45.3282 26.0418 45.4072 26.3569C45.5257 26.8196 45.6244 27.2922 45.7429 27.755C45.8022 27.9913 45.8516 28.2276 45.9108 28.4639C45.98 28.7593 45.8812 28.9562 45.5948 29.0645C44.5579 29.4583 43.5012 29.8029 42.3853 29.921C41.4175 30.0294 40.4497 30.0294 39.4819 29.9407C38.7512 29.8718 38.0401 29.7438 37.3587 29.4878C35.7095 28.8676 34.6627 27.6762 34.1097 26.032C33.8925 25.392 33.774 24.7225 33.6851 24.053C33.5567 23.0881 33.5369 22.1134 33.5369 21.1386C33.5468 18.3818 33.5369 15.6447 33.5369 12.8977Z" fill="white"/>
<path d="M24.9158 19.1007C24.9158 15.8418 24.9158 12.5927 24.9158 9.33374C24.9158 9.25497 24.9158 9.17621 24.9158 9.09744C24.9256 8.8513 25.0639 8.71346 25.3108 8.68392C25.37 8.67407 25.4392 8.67407 25.4984 8.67407C26.3477 8.67407 27.1871 8.67407 28.0364 8.67407C28.0858 8.67407 28.1352 8.67407 28.1747 8.67407C28.4709 8.69376 28.6191 8.8316 28.6289 9.13682C28.6289 9.1959 28.6289 9.26482 28.6289 9.32389C28.6289 15.8516 28.6289 22.3794 28.6289 28.9071C28.6289 28.9957 28.6388 29.0843 28.6191 29.1631C28.5894 29.3895 28.4413 29.5372 28.2043 29.5372C27.2365 29.5372 26.2786 29.5372 25.3108 29.5372C25.0639 29.5372 24.9158 29.3797 24.9059 29.1434C24.9059 29.0646 24.9059 28.9859 24.9059 28.9071C24.9158 25.6481 24.9158 22.3794 24.9158 19.1007Z" fill="white"/>
<path d="M26.8019 0C27.7006 0.0196915 28.4412 0.403676 28.8955 1.26026C29.1128 1.66393 29.172 2.11684 29.1523 2.56974C29.1128 3.42632 28.7573 4.11552 27.9969 4.55858C27.1179 5.07056 25.7453 5.00164 24.9355 4.10568C24.58 3.71185 24.4022 3.23925 24.3627 2.71743C24.3331 2.40236 24.3528 2.0873 24.422 1.78208C24.6787 0.639974 25.7255 0.039383 26.5452 0.0295372C26.6143 0.00984575 26.6834 0.00984575 26.8019 0Z" fill="white"/>
</g>
<defs>
<clipPath id="clip0_10279_571">
<rect width="64.5161" height="30" fill="white"/>
</clipPath>
</defs>
</svg>
