<svg id="febbe2d1-03d0-4723-8103-1523d37987dd" data-name="Layer 1" xmlns="http://www.w3.org/2000/svg" xmlns:xlink="http://www.w3.org/1999/xlink" viewBox="0 0 142.07 35.6"><defs><style>.e524a0f9-27f9-4378-81d7-0c406724ad33{fill:none;}.a87bec0a-b647-4833-89a1-a340a258fa43{clip-path:url(#b0e3b070-68c0-47ab-a769-4a93f1b988c8);}.f66bacb9-0f9c-4876-b99d-c7a45494d4c5{fill:#6c6ea8;}.affe0703-4772-48aa-bf23-f09b10151dcc{fill:#2f2e79;}.e9402f8f-6cd7-48e1-8723-e2730717052f{fill:#5f6062;}</style><clipPath id="b0e3b070-68c0-47ab-a769-4a93f1b988c8" transform="translate(0.53 -22.68)"><rect class="e524a0f9-27f9-4378-81d7-0c406724ad33" x="-11" y="6.85" width="163" height="67.26"/></clipPath></defs><title>equatorialCustomer</title><g id="abe51628-c3be-43a9-b98f-6dcda344399f" data-name="layer1"><g id="bb3bef2a-ba33-4bf4-acf8-3f4683557d78" data-name="g4534"><g id="ac78d327-d989-4cc5-8600-f7eeb237d886" data-name="g4536"><g class="a87bec0a-b647-4833-89a1-a340a258fa43"><g id="e4942ee2-5f51-46d5-bd52-69797a10dfc5" data-name="g4538"><g id="e628c213-4ad0-425c-8182-ac7cee6726b4" data-name="g4544"><path id="b2b5ad23-edb1-426e-97e3-eb0767fd28a7" data-name="path4546" class="f66bacb9-0f9c-4876-b99d-c7a45494d4c5" d="M24.53,44.92a3.72,3.72,0,0,1-1.87,3.45,8.6,8.6,0,0,1-4.27.86,8.11,8.11,0,0,1-4.29-.93,3.94,3.94,0,0,1-1.79-3.58v-4c1.66-.28,5.22-.84,5.22-.84v5a1.46,1.46,0,0,0,.21.84.89.89,0,0,0,.69.26.84.84,0,0,0,.67-.26,1.46,1.46,0,0,0,.22-.84V40.61h5.21Zm26.59,4H45.93v-.71a3.34,3.34,0,0,1-1.3.71,5.81,5.81,0,0,1-1.94.3A4.21,4.21,0,0,1,40,48.37a2.6,2.6,0,0,1-1.06-2.09V37.87c1.7-.1,3.45-.21,5.22-.3V45c0,.65.3,1,.9,1a.9.9,0,0,0,.67-.21,1.19,1.19,0,0,0,.24-.74V37.47c1.7-.09,3.44-.16,5.19-.22ZM58.45,37v2.76a1.61,1.61,0,0,0-.52.32,1.33,1.33,0,0,0-.39,1V45a1.21,1.21,0,0,0,.24.76,1,1,0,0,0,.67.21V49.1a10.25,10.25,0,0,1-1.84.13,5.31,5.31,0,0,1-3.32-.82,3.18,3.18,0,0,1-1-2.52V41.62c0-1.7,1.17-3.12,3.5-4.24.23-.11.47-.22.69-.3ZM38,44.92A3.8,3.8,0,0,1,36.66,48l1.4,2.61H33.75L33,49.21c-.35,0-.69,0-1.08,0a8.37,8.37,0,0,1-4.35-.93,3.87,3.87,0,0,1-1.83-3.58V39c1.7-.19,3.44-.34,5.21-.51v6.4a1.39,1.39,0,0,0,.22.84.88.88,0,0,0,.69.26.82.82,0,0,0,.66-.26,1.39,1.39,0,0,0,.24-.84V38.33L38,37.94Zm38.1,4h-3.3c-2.26,0-3.64-.3-4.15-.91s-.76-2-.76-4.22V36.9l2.72,0,2.5,0v6.86a1.43,1.43,0,0,0,.62,1.31,3,3,0,0,0,1.4.26h1ZM95.62,37.49V48.93H90.4V37.27c1.77.06,3.49.13,5.22.22m-6.23,7.43a3.69,3.69,0,0,1-1.81,3.45,8.33,8.33,0,0,1-4.23.86A8.32,8.32,0,0,1,79,48.3a3.88,3.88,0,0,1-1.85-3.58V36.93l5.21.08v7.87a1.46,1.46,0,0,0,.24.84.84.84,0,0,0,.67.26.89.89,0,0,0,.69-.26,1.46,1.46,0,0,0,.21-.84V37.05c1.77.05,3.5.11,5.22.18Zm19.54,4h-5.21V38c1.76.11,3.51.26,5.21.39Zm-50.48.17V45.93h0a.74.74,0,0,0,.58-.21,1,1,0,0,0,.28-.76V39.49a5,5,0,0,0-.9.3V37c2-.05,4-.09,6.11-.1v12H60v-.82a1.76,1.76,0,0,1-1.16.9l-.34.09m57.65-10v.73a1.94,1.94,0,0,0-.53.32,1.32,1.32,0,0,0-.37,1V45a1.2,1.2,0,0,0,.22.76,1,1,0,0,0,.68.21V49.1a10.3,10.3,0,0,1-1.85.13,5.16,5.16,0,0,1-3.29-.82,3.14,3.14,0,0,1-1-2.52V41.62a3.82,3.82,0,0,1,1.53-3c1.55.14,3.08.29,4.58.45m12.59,9.87h-5.21V40c1.81.24,3.55.5,5.21.78Zm-12.59.17V45.93h0a.79.79,0,0,0,.6-.21A1.11,1.11,0,0,0,117,45V39.49a5.41,5.41,0,0,0-.89.3v-.73q3.15.34,6.11.73v9.14h-4.62v-.82a1.76,1.76,0,0,1-1.16.9l-.33.09" transform="translate(0.53 -22.68)"/></g><g id="a0ff3baf-93b4-4f13-9eb5-5a02e32c65e7" data-name="g4548"><path id="b1995422-0b79-42cb-905a-0755215614d5" data-name="path4550" class="affe0703-4772-48aa-bf23-f09b10151dcc" d="M18.42,39.41a146.47,146.47,0,0,0-19,3.72,65.58,65.58,0,0,1,12.84-3.68V32a3.82,3.82,0,0,1,1.77-3.51,7.79,7.79,0,0,1,4.31-1h0v3.3a.9.9,0,0,0-.64.28,1.05,1.05,0,0,0-.25.77v4.87h.89Zm13.43-1.54c-1.58.14-3.14.3-4.67.46-3.05.32-6,.68-8.76,1.08V36.73h.89V31.86a1.14,1.14,0,0,0-.21-.77.85.85,0,0,0-.67-.28h0v-3.3a8.85,8.85,0,0,1,4.23.86,3.66,3.66,0,0,1,1.88,3.45v5.65l1.21-.15V32a3.78,3.78,0,0,1,1.83-3.51,8,8,0,0,1,4.28-1v3.3a.9.9,0,0,0-.64.28,1.05,1.05,0,0,0-.26.77v4.87l.9-.1Zm14.08-2.34V27.66h5.19v7.6l1.4-.06V31.82a3.66,3.66,0,0,1,1.92-3.45,8.64,8.64,0,0,1,4-.86v3.3a.9.9,0,0,0-.64.28,1.05,1.05,0,0,0-.26.77V35l.9,0v1.37c-9.47.24-18.43.75-26.59,1.5V36.63l.91-.08V31.86a1.14,1.14,0,0,0-.24-.77.84.84,0,0,0-.67-.28v-3.3h.07a7.77,7.77,0,0,1,4.29,1.14A3.51,3.51,0,0,1,38,31.82v4.26L38.9,36V27.66h5.21v8l1.82-.11m12.51-8h.31a7.44,7.44,0,0,1,4.16.95A4,4,0,0,1,64.57,32v2.87l3.29,0v-4H65.54V27.66h2.32V23.39h5.22v4.27h2.8v3.15h-2.8v4c1.36,0,2.72,0,4.07,0V32A3.8,3.8,0,0,1,79,28.5a8,8,0,0,1,4.27-1v3.3a.92.92,0,0,0-.63.28,1.06,1.06,0,0,0-.28.77V35l.91,0v1.37q-6.24-.18-12.76-.18-6.15,0-12.07.16V35l.91,0V31.86a1.14,1.14,0,0,0-.24-.77.84.84,0,0,0-.67-.28Zm24.83,0h.09a7.62,7.62,0,0,1,4.26,1.14,3.45,3.45,0,0,1,1.77,3.17v3.42l1,0V27.66h5.22v.71a3.2,3.2,0,0,1,.89-.48v3a.93.93,0,0,0-.68.22,1,1,0,0,0-.21.71v3.74l.89.06v1.32c-4.27-.25-8.7-.43-13.24-.55V35l.9,0V31.86a1.14,1.14,0,0,0-.21-.77.9.9,0,0,0-.69-.28Zm23-1h-2.6V22.68h2.6Zm-9.81,1.39a3.4,3.4,0,0,1,.38-.12,6.89,6.89,0,0,1,2-.26,4,4,0,0,1,2.69.91,2.62,2.62,0,0,1,1.08,2.13v5.5l1.1.09V27.66h2.6v10c-3.16-.26-6.44-.49-9.81-.68V35.62l.89.05V31.86c0-.64-.28-1-.88-1h0Zm9.81-1.39h2.61V22.68h-2.61Zm0,1.16h2.61v9c1.72.17,3.39.36,5,.55,2-1,3-1.72,3-2.15V31.86a1.14,1.14,0,0,0-.22-.77.88.88,0,0,0-.68-.28.9.9,0,0,0-.63.28,1.05,1.05,0,0,0-.26.77v4.2h-5V31.82a3.72,3.72,0,0,1,1.92-3.45,9.05,9.05,0,0,1,4.31-.86,7.44,7.44,0,0,1,4.16.95A4,4,0,0,1,122.2,32v6.27l.26,0,1,.16V22.68h5.21V39.45a65.58,65.58,0,0,1,12.84,3.68,176.16,176.16,0,0,0-27.71-4.8q-3.63-.39-7.5-.71Z" transform="translate(0.53 -22.68)"/></g><g id="be0cf7a4-f379-4a95-aed1-f8bf1b552d0a" data-name="g4552"><path id="b6c76f99-baea-4dd9-881b-dd46e1d28373" data-name="path4554" class="e9402f8f-6cd7-48e1-8723-e2730717052f" d="M91.7,55.34l.53-1.68c.12-.4.22-.88.32-1.27h0c.1.39.21.86.34,1.27l.54,1.68Zm2,.94.62,1.93h1.33L93.4,51.4H91.81l-2.18,6.81h1.28l.59-1.93Zm-8.12,1.93h1.25V51.4H85.54Zm-3.19-3.76H79.94v1h1.21v1.7a2.48,2.48,0,0,1-1,.14,2.25,2.25,0,0,1-2.36-2.47,2.28,2.28,0,0,1,2.47-2.44,3.7,3.7,0,0,1,1.55.29l.28-1a4.78,4.78,0,0,0-1.81-.32,3.47,3.47,0,0,0-3.8,3.54,3.38,3.38,0,0,0,1,2.51,3.68,3.68,0,0,0,2.68.91,6.87,6.87,0,0,0,2.19-.38Zm-11.9-2.1a3.54,3.54,0,0,1,.76-.06c.81,0,1.34.34,1.34,1.09S72,54.5,71.18,54.5h-.73Zm-1.23,5.86h1.23v-2.8h.62c.71,0,1,.3,1.23,1.19a9.67,9.67,0,0,0,.45,1.61H74a12,12,0,0,1-.54-1.9,1.7,1.7,0,0,0-1-1.31v0a1.82,1.82,0,0,0,1.23-1.71,1.73,1.73,0,0,0-.58-1.37,3.2,3.2,0,0,0-2.11-.54,11.81,11.81,0,0,0-1.87.14Zm-3.32-4H63.33V52.41h2.72v-1h-4v6.81H66.2v-1H63.33v-2H65.9Zm-11.43,4V55.78c0-1.13,0-2-.06-2.91h0a22.9,22.9,0,0,0,1.23,2.35l1.78,3h1.28V51.4H57.58v2.37c0,1,0,1.92.11,2.83h0a21.34,21.34,0,0,0-1.16-2.28L54.75,51.4H53.33v6.81Zm-4.46-4H47.45V52.41h2.71v-1h-4v6.81h4.12v-1H47.45v-2H50Z" transform="translate(0.53 -22.68)"/></g></g></g></g></g></g></svg>