<svg width="159" height="159" viewBox="0 0 109 109" fill="none" xmlns="http://www.w3.org/2000/svg">
<path d="M29.4999 53.4215C16.3008 53.4215 5.60144 42.7221 5.60144 29.523C5.60144 16.3239 16.3008 5.62451 29.4999 5.62451C42.699 5.62451 53.3984 16.3239 53.3984 29.523C53.384 42.7149 42.6919 53.4071 29.4999 53.4215ZM10.3811 29.934C10.4355 34.9866 12.4877 39.8121 16.0892 43.3561C19.6908 46.9 24.5488 48.8742 29.6016 48.847C34.6543 48.8199 39.4908 46.7936 43.0541 43.2111C46.6174 39.6287 48.6176 34.7813 48.6176 29.7285C48.6176 24.6757 46.6174 19.8283 43.0541 16.2459C39.4908 12.6634 34.6543 10.6372 29.6016 10.61C24.5488 10.5828 19.6908 12.557 16.0892 16.1009C12.4877 19.6449 10.4355 24.4705 10.3811 29.523V29.934ZM24.7202 40.2773V18.7687L39.0593 29.523L24.7202 40.2773Z" fill="#663399"/>
</svg>
