<?xml version="1.0" encoding="utf-8"?>
<!-- Generator: Adobe Illustrator 24.0.1, SVG Export Plug-In . SVG Version: 6.00 Build 0)  -->
<svg version="1.1" id="a07c69c1-d4c9-487b-be4b-5a43e8e6b0fe"
	 xmlns="http://www.w3.org/2000/svg" xmlns:xlink="http://www.w3.org/1999/xlink" x="0px" y="0px" viewBox="0 0 109.7 58"
	 style="enable-background:new 0 0 109.7 58;" xml:space="preserve">
<style type="text/css">
	.st0{fill:#EA1D2C;}
</style>
<title>ifoodCustomer</title>
<path class="st0" d="M18.3,32.8h5.6L27,17.5h-5.6L18.3,32.8z M21.7,15.6h5.6l0.9-4.6h-5.6L21.7,15.6z M26.1,37.2h5.6L35,20.6h4.2
	l0.6-3.1h-4.1l0.2-0.7c0.2-1.3,0.7-2.8,2.8-2.8c1.2-0.1,2.4,0.1,3.6,0.6l0.6-3.2c-1.3-0.5-2.6-0.7-4-0.7c-4.5,0-7.6,2.7-8.7,6.8
	h-1.9l-0.6,3.1h1.9L26.1,37.2z"/>
<path class="st0" d="M43.7,33.1c6.6,0,11.1-6,11.1-10.8c0-3.6-3.3-5.2-6.6-5.2c-7.2,0-11.2,6.4-11.2,10.8
	C37.1,31.6,40.5,33.1,43.7,33.1 M61.2,33.1c6.6,0,11.1-6,11.1-10.8c0-3.6-3.4-5.2-6.7-5.2c-7.2,0-11.1,6.4-11.1,10.8
	C54.6,31.6,58.1,33.1,61.2,33.1 M81.4,32.8h5.5L91.4,11h-5.5l-1.3,6.5l-2.3-0.2c-5.4,0-10.4,7-10.4,11.9c0,2,1.3,4,3.6,4
	c3.2,0,5.4-1.5,6.3-3.1H82L81.4,32.8z M64.3,44.3c-4.3,3.6-9.9,5.3-15.5,4.9c-6.8-0.4-12.3-5.4-13.5-12.1h0.3
	c2.1,4.3,6.1,7.2,10.8,7.7c5.1,0.6,11.2-1.7,14.5-4.9l-3.7-2.9h11.2L66,49.1L64.3,44.3L64.3,44.3z"/>
</svg>
