<svg id="a07c69c1-d4c9-487b-be4b-5a43e8e6b0fe" data-name="Layer 1" xmlns="http://www.w3.org/2000/svg" viewBox="0 0 109.69 57.97"><defs><style>.fbd8a561-3463-4424-9804-4a898cebb2ac{fill:#ea1d2c;}</style></defs><title>ifoodCustomer</title><path class="fbd8a561-3463-4424-9804-4a898cebb2ac" d="M14.86,44.31h8.35l4.64-23.07H19.5ZM20,18.49h8.38l1.38-6.91H21.34Zm6.5,32.31h8.35l5.1-24.92h6.26l.92-4.64H41l.23-1c.35-2,1-4.18,4.18-4.18a12.1,12.1,0,0,1,5.33.93l.93-4.87a18.52,18.52,0,0,0-6-1.05c-6.73,0-11.36,4-13.1,10.21h-2.9l-.93,4.64h2.9Z" transform="translate(-14.86 -11.03)"/><path class="fbd8a561-3463-4424-9804-4a898cebb2ac" d="M52.89,44.78c9.86,0,16.7-8.93,16.7-16.24,0-5.45-5-7.77-9.85-7.77C49,20.77,43,30.4,43,37c0,5.45,5.1,7.77,9.85,7.77m26.44,0c9.86,0,16.7-8.93,16.7-16.24,0-5.45-5.1-7.77-10-7.77-10.79,0-16.7,9.63-16.7,16.24,0,5.45,5.22,7.77,10,7.77m30.26-.47h8.24l6.72-32.81H116.2l-2,9.74-3.48-.34c-8.12,0-15.54,10.43-15.54,17.85,0,3,2,6,5.34,6,4.75,0,8.11-2.32,9.5-4.64h.47ZM83.85,61.59a32.2,32.2,0,0,1-23.19,7.3A21.94,21.94,0,0,1,40.37,50.8h.47A20.79,20.79,0,0,0,57.07,62.4c7.65.93,16.81-2.55,21.8-7.31L73.3,50.8H90.11L86.4,68.66,84,61.7Z" transform="translate(-14.86 -11.03)"/></svg>