<svg id="bfbfa0f2-387c-4b91-8ade-bf879f74831a" data-name="Layer 1" xmlns="http://www.w3.org/2000/svg" viewBox="0 0 364.99 61.74"><defs><style>.b1276962-bac2-4ed0-9295-9f205cecbc15{fill:#1d3c6d;}.e19d9f11-793b-4fc9-94ae-2c8cb61af469{fill:#e32726;}</style></defs><title>kraft</title><path class="b1276962-bac2-4ed0-9295-9f205cecbc15" d="M229.8,248V237.8H221V226.6H209.4v11.2h-4.8v10.3h4.8v9.4h0v1.4h0v5.5c.1,4.9,1.9,10.2,6,13.1,3.6,2.6,8.2,3.1,12.5,3-3.6-3.7-5.7-9.2-6.6-13.6v-.2a24.29,24.29,0,0,1-.2-4.1,3.4,3.4,0,0,0-.1-1V248.3a85.28,85.28,0,0,1,8.8-.3" transform="translate(-67.5 -219.04)"/><path class="b1276962-bac2-4ed0-9295-9f205cecbc15" d="M202.3,229.8V219.5c-5.7-1-12.4-.6-17,3.4-4.1,3.7-4.9,9.6-4.8,14.8h-5V248h5.1v5.6h0v25.2h11.8V248h7.9V237.7h-7.9c.1-2.3-.2-5.1,1.7-6.8,2.3-1.9,5.5-1.3,8.2-1.1" transform="translate(-67.5 -219.04)"/><path class="b1276962-bac2-4ed0-9295-9f205cecbc15" d="M159.5,278.8h11.6c-.1-8.8.1-17.6-.1-26.4-.1-5.2-2-10.9-7-13.3-7-3.5-15.3-2.7-22.8-1.5v11.2c4.8-1,10.1-2.1,14.9-.4,2.2.8,3.1,3.1,3.4,5.2-3.3-.4-6.7-1.2-10.1-.5-4,.5-8,2.5-10.2,5.9-3.6,5.5-2.6,13.7,2.8,17.7,5.1,3.9,12.4,3.4,17.6,0a14.08,14.08,0,0,0-.1,2.1m-.5-8.9c-3,.9-6.6,1.9-9.4-.1a4.49,4.49,0,0,1,.5-7.4c2.8-1.5,6-1,9-.4a34.79,34.79,0,0,1-.1,7.9" transform="translate(-67.5 -219.04)"/><path class="b1276962-bac2-4ed0-9295-9f205cecbc15" d="M99.1,223.1h14.1c-6.9,9.3-13.6,18.7-20.6,27.9,6.2,9.2,12.3,18.5,18.5,27.7H96.4c-5.4-8.3-10.9-16.5-16.3-24.8v24.8H67.5V223H80.1v26.3c6.3-8.7,12.7-17.4,19-26.2" transform="translate(-67.5 -219.04)"/><path class="b1276962-bac2-4ed0-9295-9f205cecbc15" d="M114,237.9h11.9c0,2.6,0,5.2-.1,7.9a14,14,0,0,1,10.7-7.9c0,3.9.1,7.8,0,11.7-5.1.6-10.3,4.4-10.4,9.8-.1,6.5,0,13,0,19.5h-12c-.1-13.8-.1-27.4-.1-41" transform="translate(-67.5 -219.04)"/><path class="e19d9f11-793b-4fc9-94ae-2c8cb61af469" d="M325.4,270.5c-1.7.7-2,1-4,1.7a9.71,9.71,0,0,1-6.3,0c-6.3-2.7-2.3-12.3-2.3-12.3,25.9-6.3,22.3-20.3,15.3-20.9-4.3,0-19.9.7-27.2,18.6-1,2.7-8,21.6,7.6,22.9a22.29,22.29,0,0,0,10.3-2,23.47,23.47,0,0,0,7.3-6.3c1.6-3.1-.7-1.7-.7-1.7m-3.7-26.6c2,.7-3,10.6-3,10.6a19.18,19.18,0,0,1-5.3,1.3c.7-1.3,4.3-13.9,8.3-11.9" transform="translate(-67.5 -219.04)"/><path class="e19d9f11-793b-4fc9-94ae-2c8cb61af469" d="M385.8,274.1c-.3-.3-1-.3-1.3-.7-2-1.3-.3-5,0-7l6-21.3c.3-1.3,2.7-8.3-6.6-7a29.62,29.62,0,0,0-13.6,6.3c.7-2,1.3-5,0-5.6-1.7-.7-11.3,2.3-13.6,4.3a1.13,1.13,0,0,0-.7,2c1,1.3,1.3,2.3.7,4.6-1.3,4-5.3,17.9-6.3,20.6s-2.3,7.6,0,9.3c1.7,1.3,8.6-1.7,9.6-2.3a6.62,6.62,0,0,0,2.3-1.3c1.3-1.3-.7-2,1.3-9,0-.3,2.3-7.3,4-13.3a11.1,11.1,0,0,1,7.6-7.6c2.7-.3,2,2,1.7,3.7-2.3,7.3-5,18.3-6,20.9s-2.7,8,0,9c2.3,1.7,13-3,13.9-3.7,2-1.2,2-1.9,1-1.9" transform="translate(-67.5 -219.04)"/><path class="e19d9f11-793b-4fc9-94ae-2c8cb61af469" d="M345.3,274.1c-.7-.3-1-.3-1.3-.7-2-1.3-.7-5,0-7l6.3-21.3c.3-2.3,1.7-5.3,0-6.3-2-.7-11.6,2.3-13.9,4.3a1.18,1.18,0,0,0-.3,2c1,1.3,1,2.3.3,4.6-1,4-5.6,18.3-6.6,20.9s-2.3,8,.7,9c2.3,1.7,12.3-2.7,13.6-3.7,2.2-.8,2.2-1.8,1.2-1.8" transform="translate(-67.5 -219.04)"/><path class="e19d9f11-793b-4fc9-94ae-2c8cb61af469" d="M343.3,233.9c.7,1.3,6.6-1.3,9.6-3,.3-.3,1.7-1.3,2-2.3a37.35,37.35,0,0,0,1.3-5c.3-.7.3-1.7-.7-2-1.3-.3-9.3.7-11.3,4-.6,1.4-2.9,7.7-.9,8.3" transform="translate(-67.5 -219.04)"/><path class="e19d9f11-793b-4fc9-94ae-2c8cb61af469" d="M432.3,257.2c-1-3.7-7-4.7-9.3-2.7-1.3,1.3-2,4-1.7,4.6,5.6-1.7,6.6,3.3,5.6,5.3-2,3-2.7,4-5.3,4H404c-.3-.3-.7-.7,0-1.3,1-1.3,18.3-24.9,18.9-25.9.3-.7,1.3-2.3-1-2.3H402.6c-2,0-3,.7-4.6,2.3-1.3,1.7-3,6.6-4,10,0,0,0,1.3,2-.3.3-.3,1-1.7,2-1.7h11.6c3.7,0-15.6,18.3-21.6,27.9-1,1.7.7,1.7,1.7,1.7H415c6.3,0,5.3,1,8.6-3.7.1,0,10.4-13.3,8.7-17.9" transform="translate(-67.5 -219.04)"/><path class="e19d9f11-793b-4fc9-94ae-2c8cb61af469" d="M293.5,268.5l7-26.9c4.6-16.3,7.3-16.9,9-18.6h-11c-4,0-7,5.6-7.6,9.3l-4.6,16.9h-10s6-21.6,6.6-23.9c.3-1,.3-2.3-1.7-2.3-.3,0-21.3-.7-27.9,1.7-3,1-7.3,3.7-8.6,7.6-1,2.3-2.3,6.6.7,14.6a4.88,4.88,0,0,0,1.3,2c1,.7,9.6-.7,9.3-.7.7,0,1-.3.3-1.7-.7-1.7-2.7-4.7-3-7.6-1.3-11.6,7-13.3,8.3-13.6a17.53,17.53,0,0,1,5.6,0c.7,0,2.3.3,2.7,1,.7,1.3-.3,3.7-1,6.3-.7,2-6.3,22.6-8,28.2-1,4.3-5.3,13.6-9.6,14.9a7.67,7.67,0,0,1-3.7,0,11.4,11.4,0,0,1-3.7-1.7c-2.7-2.7-4.3-8-4.7-12-.3-5,.7-8.6-.3-8.6-1.7,0-7.5,2.3-9.9,4h0c-1,.7-1,.8-1,.8l-.1.1c-.6,1-.6,4.8-.3,7,1,5,3.7,10.6,7.6,13.3,10.6,7.3,29.2-6,31.2-7.3a18.62,18.62,0,0,0,5.6-9c1-3.3,2.7-9,2.7-9h10s-4,14.9-5,18.6c-1,3-1.7,8,1,7.6,10,0,13.9-3.7,14.3-4a.94.94,0,0,0,0-1.3c-.5-.1-2.8-2.4-1.5-5.7" transform="translate(-67.5 -219.04)"/></svg>