<svg id="a521b5e7-f947-4fc2-9085-4400132a0c84" data-name="Layer 1" xmlns="http://www.w3.org/2000/svg" viewBox="0 0 132 22.37"><defs><style>.b4d80392-88a2-477f-b94f-635ec22842f6{fill:#1d3c6d;}.a35516a6-fe16-442c-8912-a24019f9252a{fill:#e32726;}</style></defs><title>krafts</title><g id="bca79dfb-ae70-40a8-8005-e98d3695491c" data-name="layer1"><g id="f14c5385-174e-4288-8946-ed6c67732cfa" data-name="g30"><path id="fcf9bce0-cda1-424d-a028-36513c796a40" data-name="path32" class="b4d80392-88a2-477f-b94f-635ec22842f6" d="M62.68,36.49V32.78H59.49v-4H55.28v4H53.54v3.71h1.74v3.88c0,.67,0,1.31,0,2a5.83,5.83,0,0,0,2.18,4.73A7.52,7.52,0,0,0,62,48.17a10.26,10.26,0,0,1-2.39-4.91v-.11a13.47,13.47,0,0,1-.09-1.49,2.3,2.3,0,0,1,0-.37V36.47c1.06,0,2.11,0,3.17,0" transform="translate(-4 -26.05)"/></g><g id="a40b9c61-c625-434e-8245-d347342a9b92" data-name="g34"><path id="ad31553e-f718-4dcf-93c3-a052897d30ad" data-name="path36" class="b4d80392-88a2-477f-b94f-635ec22842f6" d="M52.77,29.91v-3.7c-2.08-.34-4.48-.22-6.15,1.21-1.49,1.35-1.79,3.48-1.74,5.38H43.07v3.71H44.9V47.63h4.27V36.49H52V32.78H49.15c0-.84-.06-1.83.62-2.45.85-.7,2-.47,3-.42" transform="translate(-4 -26.05)"/></g><g id="fe5ec5e1-eae8-4974-a756-1ec0f8aed084" data-name="g38"><path id="f1a4e1fc-1c0a-4f49-b610-66f2b6eb6e59" data-name="path40" class="b4d80392-88a2-477f-b94f-635ec22842f6" d="M37.27,47.63h4.17c0-3.19,0-6.36,0-9.55,0-1.86-.74-3.94-2.53-4.82-2.54-1.27-5.52-1-8.24-.54,0,1.35,0,2.71,0,4.05,1.74-.37,3.66-.77,5.37-.12a2.15,2.15,0,0,1,1.24,1.89,11,11,0,0,0-3.65-.19,5.07,5.07,0,0,0-3.69,2.13,4.8,4.8,0,0,0,1,6.38,5.57,5.57,0,0,0,6.36,0c0,.21,0,.59,0,.79m-.18-3.21c-1.07.34-2.4.7-3.4-.05a1.63,1.63,0,0,1,.2-2.69,4.8,4.8,0,0,1,3.24-.13,12.53,12.53,0,0,1,0,2.87" transform="translate(-4 -26.05)"/></g><g id="e359544d-fb55-4f0d-b4f8-22faa5525138" data-name="g42"><path id="bde5fcc1-6e29-4231-974f-dcbbd32cc013" data-name="path44" class="b4d80392-88a2-477f-b94f-635ec22842f6" d="M15.41,27.51h5.11c-2.49,3.34-4.93,6.75-7.44,10.08,2.24,3.35,4.44,6.7,6.68,10-1.77,0-3.53,0-5.3,0q-3-4.48-5.89-9v9H4V27.51H8.57V37c2.27-3.17,4.57-6.32,6.84-9.49" transform="translate(-4 -26.05)"/></g><g id="afa97ad3-710a-42cf-ab22-58f438f8b6cc" data-name="g46"><path id="bcbceb5e-d6ca-4101-b762-1822ff608000" data-name="path48" class="b4d80392-88a2-477f-b94f-635ec22842f6" d="M20.82,32.82h4.3c0,1,0,1.9,0,2.83A5.08,5.08,0,0,1,29,32.79c0,1.39,0,2.81,0,4.22-1.82.22-3.7,1.58-3.78,3.57-.05,2.35,0,4.69,0,7.06H20.82V32.82" transform="translate(-4 -26.05)"/></g><g id="aa3ed378-1253-4bff-aa79-ac345f397186" data-name="g50"><path id="a0d9f965-bd63-4cdd-ac00-b641456b25c6" data-name="path52" class="a35516a6-fe16-442c-8912-a24019f9252a" d="M97.26,44.62c-.61.24-.72.36-1.44.61a3.67,3.67,0,0,1-2.27,0c-2.28-1-.84-4.44-.84-4.44,9.36-2.27,8-7.33,5.51-7.56A10.2,10.2,0,0,0,88.37,40c-.36,1-2.88,7.81,2.76,8.29a7,7,0,0,0,6.36-3c.61-1.11-.23-.63-.23-.63M95.93,35c.72.24-1.07,3.85-1.07,3.85a7.5,7.5,0,0,1-1.92.49c.23-.5,1.56-5.07,3-4.34" transform="translate(-4 -26.05)"/></g><g id="a668df90-373f-4903-a39d-a8acecd429ba" data-name="g54"><path id="b207369d-8b57-4eb2-9155-3d427ce90d48" data-name="path56" class="a35516a6-fe16-442c-8912-a24019f9252a" d="M119.12,46c-.13-.13-.36-.13-.49-.23-.71-.49-.12-1.81,0-2.53l2.17-7.68c.13-.49,1-3-2.4-2.53a11.11,11.11,0,0,0-4.93,2.28c.24-.72.49-1.81,0-2s-4.08.85-4.92,1.56a.4.4,0,0,0-.23.72,1.59,1.59,0,0,1,.23,1.68c-.48,1.44-1.92,6.49-2.28,7.45s-.84,2.76,0,3.37c.61.49,3.12-.61,3.48-.84a2.58,2.58,0,0,0,.84-.48c.48-.49-.23-.72.48-3.25,0-.12.85-2.63,1.44-4.8a4,4,0,0,1,2.76-2.75c1-.13.71.71.6,1.32-.84,2.65-1.8,6.61-2.16,7.56s-1,2.88,0,3.24c.84.61,4.67-1.07,5.05-1.32.72-.49.72-.72.36-.72" transform="translate(-4 -26.05)"/></g><g id="fe97bf01-404e-4067-9e83-19079c538469" data-name="g58"><path id="bc135a0f-34d0-4b49-a0d1-55941232ffe6" data-name="path60" class="a35516a6-fe16-442c-8912-a24019f9252a" d="M104.46,46a4.5,4.5,0,0,1-.48-.23c-.72-.49-.24-1.81,0-2.53l2.27-7.68c.13-.84.61-1.92,0-2.28s-4.21.84-5,1.56a.42.42,0,0,0-.12.72c.35.48.35.84.12,1.68-.36,1.43-2,6.61-2.4,7.56S98,47.63,99,48c.85.61,4.45-1,4.93-1.32.86-.36.86-.72.5-.72" transform="translate(-4 -26.05)"/></g><g id="a3436f07-8a0e-4c75-b2ca-10b4679cfc36" data-name="g62"><path id="b7baf6a0-db8f-4f01-add4-8141bac69fc9" data-name="path64" class="a35516a6-fe16-442c-8912-a24019f9252a" d="M103.75,31.42c.23.48,2.4-.49,3.47-1.08a2.38,2.38,0,0,0,.72-.84c.23-.84.36-1.2.48-1.81a.47.47,0,0,0-.23-.72c-.49-.12-3.37.24-4.09,1.44-.23.48-1.07,2.76-.35,3" transform="translate(-4 -26.05)"/></g><g id="f9ce1fff-ec1b-41c0-827c-4a28b9effecd" data-name="g66"><path id="ee2ae2c0-df82-46b5-839f-2ffc0f865d74" data-name="path68" class="a35516a6-fe16-442c-8912-a24019f9252a" d="M135.94,39.83c-.36-1.33-2.53-1.69-3.37-1a2.26,2.26,0,0,0-.61,1.68c2-.61,2.4,1.2,2,1.92-.71,1.07-1,1.43-1.91,1.43h-6.36c-.13-.12-.24-.23,0-.48.35-.48,6.61-9,6.84-9.37s.48-.84-.36-.84h-7a2.09,2.09,0,0,0-1.68.84,14.7,14.7,0,0,0-1.43,3.6s0,.48.71-.12c.13-.13.36-.61.72-.61h4.21c1.32,0-5.64,6.61-7.81,10.08-.36.61.23.61.61.61h9.13c2.28,0,1.92.36,3.12-1.33,0,0,3.71-4.76,3.12-6.44" transform="translate(-4 -26.05)"/></g><g id="ecc5e4a3-e758-4fdf-bf89-21549a149361" data-name="g70"><path id="a47d9454-a073-4572-a794-088cf188b982" data-name="path72" class="a35516a6-fe16-442c-8912-a24019f9252a" d="M85.72,43.91l2.53-9.73c1.68-5.89,2.63-6.12,3.24-6.71h-4c-1.43,0-2.52,2-2.76,3.36L83.09,37h-3.6s2.17-7.81,2.4-8.65c.13-.36.13-.84-.61-.84-.12,0-7.68-.24-10.08.6a5,5,0,0,0-3.12,2.76c-.36.84-.84,2.4.23,5.29a1.65,1.65,0,0,0,.49.71c.35.24,3.47-.23,3.36-.23.24,0,.36-.12.13-.61a10.3,10.3,0,0,1-1.08-2.76c-.48-4.21,2.53-4.8,3-4.92a5.44,5.44,0,0,1,2,0c.23,0,.84.12,1,.36.24.48-.12,1.32-.36,2.27-.23.72-2.27,8.17-2.88,10.21-.36,1.56-1.92,4.93-3.47,5.41a2.31,2.31,0,0,1-1.33,0A4.51,4.51,0,0,1,67.86,46a7.76,7.76,0,0,1-1.68-4.32c-.12-1.8.23-3.11-.12-3.11A10.12,10.12,0,0,0,62.49,40a2,2,0,0,0-.36.29.05.05,0,0,0,0,0A6.15,6.15,0,0,0,62,42.83a7.71,7.71,0,0,0,2.76,4.8C68.6,50.27,75.32,45.47,76,45a6.83,6.83,0,0,0,2-3.24l1-3.24h3.6s-1.43,5.41-1.81,6.72c-.36,1.07-.61,2.88.36,2.76,3.6,0,5-1.33,5.16-1.44a.34.34,0,0,0,0-.48,1.72,1.72,0,0,1-.63-2.15" transform="translate(-4 -26.05)"/></g></g></svg>