<svg id="b56746cb-6518-46a1-804d-78c2f647e533" data-name="Layer 1" xmlns="http://www.w3.org/2000/svg" viewBox="0 0 139 24.22"><defs><style>.ea599b40-2c3a-48d5-9f20-4b98cb4f995c{fill:#ea1d25;}</style></defs><title>santanderCustomer</title><path class="ea599b40-2c3a-48d5-9f20-4b98cb4f995c" d="M18.38,36.07a5.48,5.48,0,0,0-.76-2.51l-4-6.94A6.07,6.07,0,0,1,13,24.93l-.17.29a5.54,5.54,0,0,0,0,5.54l3.21,5.55a5.54,5.54,0,0,1,0,5.54l-.18.29a5.89,5.89,0,0,0-.64-1.69l-2.92-5.08-1.86-3.26a5.86,5.86,0,0,1-.65-1.7l-.17.3a5.54,5.54,0,0,0,0,5.54h0l3.21,5.54a5.56,5.56,0,0,1,0,5.55l-.18.29A5.67,5.67,0,0,0,12,45.94L8,39a6.19,6.19,0,0,1-.75-3C3,37.07,0,39.46,0,42.2c0,3.85,5.72,6.95,12.78,6.95s12.78-3.1,12.78-6.95C25.62,39.58,22.7,37.18,18.38,36.07ZM30.46,47.92a8.08,8.08,0,0,1,.47-2.45,11,11,0,0,0,4.37.93c2.22,0,3.51-.7,3.51-2.16s-.94-2-3.16-3l-1.22-.47c-2.28-1-3.79-2.27-3.79-4.78,0-2.75,1.92-4.5,5.77-4.5a13.41,13.41,0,0,1,4.38.7,9,9,0,0,1-.47,2.4,12.56,12.56,0,0,0-4-.7c-2.1,0-3,.81-3,2.1s.93,2,2.63,2.68l1.28.53c3,1.28,4.32,2.68,4.32,5,0,2.74-2.1,4.66-6.19,4.66A11.34,11.34,0,0,1,30.46,47.92Zm24-11.5v12H52L51.88,47a3.74,3.74,0,0,1-3.39,1.75c-3.15,0-5.31-2.34-5.31-6.36,0-4.21,2.28-6.66,6.71-6.66A15.47,15.47,0,0,1,54.44,36.42ZM51.82,45.7V38.17a10.08,10.08,0,0,0-1.93-.11c-2.74,0-4,1.69-4,4.37,0,2.46,1,4.21,3.32,4.21A4.57,4.57,0,0,0,51.82,45.7ZM68,40.39v8.06H65.36V40.86c0-1.93-.65-2.8-3.27-2.8a14.79,14.79,0,0,0-2.1.17V48.45H57.36v-12a23.64,23.64,0,0,1,4.79-.7C66.58,35.78,68,37.47,68,40.39Zm7.36,6.13a5.44,5.44,0,0,0,2-.35c-.06.7-.18,1.52-.29,2.22a6,6,0,0,1-2.22.41c-2.57,0-4.2-1.17-4.2-4.09V32.05a8.23,8.23,0,0,1,2.62-.41v4.55h4.2a21.41,21.41,0,0,1-.23,2.28h-4v5.89C73.29,45.88,74.05,46.52,75.34,46.52Zm14.18-10.1v12H87.06L87,47a3.73,3.73,0,0,1-3.39,1.75c-3.15,0-5.31-2.34-5.31-6.36,0-4.21,2.28-6.66,6.71-6.66A15.87,15.87,0,0,1,89.52,36.42ZM86.83,45.7V38.17a10,10,0,0,0-1.92-.11c-2.75,0-4,1.69-4,4.37,0,2.46,1,4.21,3.33,4.21A4.41,4.41,0,0,0,86.83,45.7Zm16.22-5.31v8.06h-2.68V40.86c0-1.93-.64-2.8-3.27-2.8a14.79,14.79,0,0,0-2.1.17V48.45H92.37v-12a23.73,23.73,0,0,1,4.79-.7C101.59,35.78,103.05,37.47,103.05,40.39Zm13.37-8.75V48.45H114l-.12-1.52a3.68,3.68,0,0,1-3.44,1.81c-3.15,0-5.31-2.34-5.31-6.36,0-4.21,2.27-6.66,6.71-6.66a10.57,10.57,0,0,1,2,.18v-4A10,10,0,0,1,116.42,31.64ZM113.79,45.7V38.29a12.49,12.49,0,0,0-2.1-.23c-2.63,0-3.85,1.63-3.85,4.37,0,2.46,1,4.21,3.32,4.21A4.71,4.71,0,0,0,113.79,45.7Zm15.93-2.39h-8.46c.35,2.16,1.58,3.15,4,3.15a9.42,9.42,0,0,0,4.2-.93c-.12.7-.23,1.63-.41,2.39a9.44,9.44,0,0,1-3.91.76c-4.43,0-6.53-2.45-6.53-6.54,0-3.56,1.63-6.42,5.83-6.42,3.79,0,5.43,2.45,5.43,5.49A11.65,11.65,0,0,1,129.72,43.31Zm-8.46-2.22h5.95c0-2-1-3.15-2.86-3.15S121.44,39.05,121.26,41.09ZM139,35.9a12.34,12.34,0,0,1-.23,2.27c-.65-.05-1.23-.11-2-.11s-1.28.06-1.92.11V48.45h-2.63v-12a15.43,15.43,0,0,1,4.49-.7C137.48,35.78,138.42,35.78,139,35.9Z" transform="translate(0 -24.93)"/></svg>